<?xml version="1.0" standalone="no"?><!DOCTYPE svg PUBLIC "-//W3C//DTD SVG 1.1//EN" "http://www.w3.org/Graphics/SVG/1.1/DTD/svg11.dtd"><svg t="1677327621866" class="icon" viewBox="0 0 1024 1024" version="1.1" xmlns="http://www.w3.org/2000/svg" p-id="8236" width="64" height="64" xmlns:xlink="http://www.w3.org/1999/xlink"><path d="M460.844203 998.4v-168.448L706.262869 108.885333l245.248 731.648v162.133334L460.844203 998.4z" fill="#266BD2" p-id="8237"></path><path d="M68.310869 839.168h391.168v166.4H68.310869z" fill="#9DDAFE" p-id="8238"></path><path d="M707.969536 114.688L733.910869 41.301333 999.809536 827.733333H947.244203L707.969536 114.688z" fill="#F43151" p-id="8239"></path><path d="M285.910869 18.432h443.733334l-264.533334 813.568h-443.733333l264.533333-813.568z" fill="#FF6F7A" p-id="8240"></path><path d="M664.108203 494.250667a67.072 54.272 90 1 0 108.544 0 67.072 54.272 90 1 0-108.544 0Z" fill="#0052CB" p-id="8241"></path><path d="M648.577536 665.6h137.898667v337.066667H648.577536z" fill="#0052CB" p-id="8242"></path><path d="M72.577536 850.432H119.510869v147.968H72.577536zM71.724203 827.733333H30.764203l267.946666-802.133333h40.96l-267.946666 802.133333z" fill="#FFFFFF" p-id="8243"></path><path d="M1023.190869 830.805333l-273.066666-819.2A17.066667 17.066667 0 0 0 733.910869 0H290.177536a17.066667 17.066667 0 0 0-16.213333 11.605333l-273.066667 819.2A17.066667 17.066667 0 0 0 17.110869 853.333333h34.133334v153.6a17.066667 17.066667 0 0 0 17.066666 17.066667h887.466667a17.066667 17.066667 0 0 0 17.066667-17.066667v-153.6h34.133333a17.066667 17.066667 0 0 0 16.213333-22.528zM302.465536 34.133333h407.722667L448.556203 819.2H40.833536zM85.377536 853.333333h358.4v136.533334H85.377536z m692.906667 136.533334h-119.466667V674.133333h119.466667z m160.426666 0h-143.36V665.6a8.533333 8.533333 0 0 0-8.533333-8.533333h-136.533333a8.533333 8.533333 0 0 0-8.533334 8.533333v324.266667H477.910869v-150.869334L709.334869 144.554667 938.710869 833.877333a17.066667 17.066667 0 0 0 0 2.389334z m17.066667-170.666667a17.066667 17.066667 0 0 0-3.242667 0L718.380203 117.589333 733.910869 70.997333 983.254869 819.2z" fill="#3D3D59" p-id="8244"></path><path d="M718.550869 418.133333c-32.938667 0-59.733333 34.133333-59.733333 76.8s26.794667 76.8 59.733333 76.8 59.733333-34.133333 59.733334-76.8-27.306667-76.8-59.733334-76.8z m0 136.533334c-23.552 0-42.666667-26.794667-42.666666-59.733334s19.114667-59.733333 42.666666-59.733333 42.666667 26.794667 42.666667 59.733333-19.114667 59.733333-42.666667 59.733334z" fill="#3D3D59" p-id="8245"></path></svg>